# xmcd CD database file
#
# Track frame offsets:
#	150
#	15832
#	28747
#	45045
#	62608
#	86510
#	103872
#	123340
#	138802
#	150990
#	172474
#
# Disc length: 2564 seconds
#
# Revision: 0
# Processed by: cddbd v1.5.2PL0 Copyright (c) Steve Scherf et al.
# Submitted via: CDex 1.51
#
DISCID=7c0a020b
DTITLE=Sugarland - Enjoy the Ride
DYEAR=2006
DGENRE=Country
TTITLE0=Settlin'
TTITLE1=County Line
TTITLE2=Want To
TTITLE3=Everyday America
TTITLE4=Happy Ending
TTITLE5=These Are the Days
TTITLE6=One Blue Sky
TTITLE7=April Showers
TTITLE8=Mean Girls
TTITLE9=Stay
TTITLE10=Sugarland
EXTD=YEAR: 2006
EXTT0=
EXTT1=
EXTT2=
EXTT3=
EXTT4=
EXTT5=
EXTT6=
EXTT7=
EXTT8=
EXTT9=
EXTT10=
PLAYORDER=
